Love for All and Sharing is the first step to solving all the problems of humanity.

Website I want to share. 
               
   http://www.scenetime.com
 
 
  Credit to EVERYONE for sharing and seeding back
 especially to SCENETIME.COM where i get all my 
 downloads.


 support www.scenetime.com to grow faster.

                             
                                                            
                                                   

.                 ..................................NFO:....................................*******************************************************************************
                Von.Ryans.Express.1965.DVDRip.AC3.X264-BARC0DE
*******************************************************************************

-------------------------------------------------------------------------------
                              General Information
-------------------------------------------------------------------------------
Type.................: Movie
Name.................: Von Ryan's Express
Movie Information....: http://www.imdb.com/title/tt0059885/
Genre................: Action | Drama | Adventure | War
-------------------------------------------------------------------------------
                                    PLOT
-------------------------------------------------------------------------------
An American POW leads a group mainly British prisoners to escape from the Germans 
in WWII. 

-------------------------------------------------------------------------------
                                    CAST
-------------------------------------------------------------------------------
Frank Sinatra	... 	Col. Joseph L. Ryan
Trevor Howard	... 	Maj. Eric Fincham
Raffaella Carr	... 	Gabriella (as Raffaella Carra)
Brad Dexter	... 	Sgt. Bostick
Sergio Fantoni	... 	Capt. Oriani
John Leyton	... 	Orde
Edward Mulhare	... 	Capt. Costanzo
Wolfgang Preiss	... 	Maj. Von Klemment
James Brolin	... 	Pvt. Ames
John Van Dreelen	... 	Col. Gortz (as John van Dreelen)
Adolfo Celi	... 	Battaglia
Vito Scotti	... 	Italian Train Engineer
Richard Bakalyan	... 	Cpl. Giannini
Michael Goodliffe	... 	Capt. Stein
Michael St. Clair	... 	Sgt. Maj. Dunbar

-------------------------------------------------------------------------------
                                    MEDiA iNFO
-------------------------------------------------------------------------------

General
Complete name                    : Von.Ryans.Express.1965.DVDRip.AC3.X264-BARC0DE.mkv
Format                           : Matroska
File size                        : 1.48 GiB
Duration                         : 1h 52mn
Overall bit rate                 : 1 889 Kbps

Video
ID                               : 1
Format                           : AVC
Format/Info                      : Advanced Video Codec
Format profile                   : High@L3.0
Format settings, CABAC           : Yes
Format settings, ReFrames        : 3 frames
Muxing mode                      : Container profile=Unknown@3.0
Codec ID                         : V_MPEG4/ISO/AVC
Duration                         : 1h 52mn
Bit rate                         : 1 659 Kbps
Nominal bit rate                 : 1 670 Kbps
Width                            : 720 pixels
Height                           : 304 pixels
Display aspect ratio             : 2.35:1
Frame rate                       : 25.000 fps
Resolution                       : 8 bits
Colorimetry                      : 4:2:0
Scan type                        : Progressive
Bits/(Pixel*Frame)               : 0.303
Stream size                      : 1.30 GiB (88%)
Writing library                  : x264 core 79


Audio
ID                               : 2
Format                           : AC-3
Format/Info                      : Audio Coding 3
Format_Settings_ModeExtension    : CM (complete main)
Codec ID                         : A_AC3
Duration                         : 1h 52mn
Bit rate mode                    : Constant
Bit rate                         : 192 Kbps
Channel(s)                       : 2 channels
Channel positions                : Front: L R
Sampling rate                    : 48.0 KHz
Stream size                      : 154 MiB (10%)
Language                         : English

Text #1
ID                               : 3
Format                           : VobSub
Codec ID                         : S_VOBSUB
Codec ID/Info                    : The same subtitle format used on DVDs
Language                         : English

Text #2
ID                               : 4
Format                           : VobSub
Codec ID                         : S_VOBSUB
Codec ID/Info                    : The same subtitle format used on DVDs
Language                         : German

Text #3
ID                               : 5
Format                           : VobSub
Codec ID                         : S_VOBSUB
Codec ID/Info                    : The same subtitle format used on DVDs
Language                         : Spanish

Menu
00:00:00.000                     : Chapter 1
00:02:32.720                     : Chapter 2
00:04:10.320                     : Chapter 3
00:05:46.080                     : Chapter 4
00:09:34.760                     : Chapter 5
00:12:31.680                     : Chapter 6
00:14:21.920                     : Chapter 7
00:16:31.640                     : Chapter 8
00:21:02.960                     : Chapter 9
00:24:55.480                     : Chapter 10
00:30:20.400                     : Chapter 11
00:33:45.000                     : Chapter 12
00:37:27.760                     : Chapter 13
00:42:26.240                     : Chapter 14
00:46:36.200                     : Chapter 15
00:51:55.640                     : Chapter 16
00:59:19.060                     : Chapter 17
01:02:34.420                     : Chapter 18
01:08:40.020                     : Chapter 19
01:13:08.340                     : Chapter 20
01:15:51.460                     : Chapter 21
01:19:42.100                     : Chapter 22
01:23:57.100                     : Chapter 23
01:25:37.260                     : Chapter 24
01:30:10.660                     : Chapter 25
01:37:26.260                     : Chapter 26
01:42:17.300                     : Chapter 27
01:45:01.300                     : Chapter 28
01:50:01.900                     : Chapter 29
01:51:26.620                     : Chapter 30